<svg xmlns="http://www.w3.org/2000/svg" width="250" height="77" fill="none"><path fill="#6366F1" d="M24.805 60V36.64h-5.888v-4.672l8.256.512v-1.088c-1.067-.427-1.963-1.003-2.688-1.728a8.669 8.669 0 0 1-1.6-2.624 9.48 9.48 0 0 1-.512-3.136c0-1.792.384-3.35 1.152-4.672.81-1.323 1.941-2.368 3.392-3.136 1.493-.768 3.264-1.152 5.312-1.152 1.621 0 3.072.235 4.352.704 1.323.427 2.41 1.003 3.264 1.728l-.704 5.44c-.81-.768-1.792-1.365-2.944-1.792-1.152-.47-2.304-.704-3.456-.704-1.408 0-2.56.448-3.456 1.344-.896.896-1.344 2.283-1.344 4.16 0 1.067.15 1.984.448 2.752a6.93 6.93 0 0 0 1.152 1.984 10.17 10.17 0 0 0 1.536 1.28h8.192l-.064 4.8h-8.64V60h-5.76Zm21.001 0V26.912h5.248l-.512 11.52h1.088c.384-2.517.981-4.693 1.792-6.528.81-1.835 1.877-3.264 3.2-4.288 1.365-1.024 3.05-1.536 5.056-1.536.427 0 .917.043 1.472.128.555.043 1.195.192 1.92.448l-.32 6.08a8.009 8.009 0 0 0-1.92-.512 9.46 9.46 0 0 0-1.856-.192c-1.664 0-3.115.533-4.352 1.6-1.195 1.067-2.197 2.517-3.008 4.352-.81 1.792-1.472 3.819-1.984 6.08V60h-5.824Zm39.208.832c-2.603 0-4.907-.384-6.912-1.152-1.963-.81-3.627-1.963-4.992-3.456-1.365-1.493-2.39-3.264-3.072-5.312-.683-2.048-1.024-4.352-1.024-6.912 0-2.603.341-4.992 1.024-7.168s1.685-4.075 3.008-5.696a13.01 13.01 0 0 1 4.864-3.712c1.92-.896 4.117-1.344 6.592-1.344 2.176 0 4.16.363 5.952 1.088 1.792.725 3.307 1.856 4.544 3.392 1.28 1.493 2.24 3.392 2.88 5.696.64 2.261.896 4.928.768 8l-25.984.192V40.48l22.464-.192-1.984 2.688c.213-2.688-.043-4.907-.768-6.656-.725-1.75-1.77-3.072-3.136-3.968-1.323-.896-2.901-1.344-4.736-1.344-1.963 0-3.69.512-5.184 1.536-1.493 1.024-2.645 2.496-3.456 4.416-.768 1.92-1.152 4.245-1.152 6.976 0 3.925.875 6.933 2.624 9.024 1.75 2.048 4.352 3.072 7.808 3.072 1.323 0 2.475-.15 3.456-.448 1.024-.341 1.877-.79 2.56-1.344a7.136 7.136 0 0 0 1.728-2.048c.47-.768.832-1.6 1.088-2.496l5.12 1.216c-.384 1.536-.981 2.923-1.792 4.16a11.189 11.189 0 0 1-2.944 3.072c-1.152.853-2.496 1.515-4.032 1.984-1.536.47-3.307.704-5.312.704Zm32.666 0c-3.669 0-6.443-1.28-8.32-3.84-1.877-2.56-2.816-6.379-2.816-11.456V26.912h5.888v18.112c0 3.584.555 6.25 1.664 8s2.859 2.624 5.248 2.624c1.323 0 2.496-.32 3.52-.96 1.067-.64 2.005-1.557 2.816-2.752.811-1.195 1.472-2.603 1.984-4.224.512-1.664.853-3.456 1.024-5.376V26.912h5.824V60h-5.184l.512-10.624h-.96c-.555 2.645-1.344 4.821-2.368 6.528-.981 1.664-2.219 2.901-3.712 3.712-1.493.81-3.2 1.216-5.12 1.216Zm38.587 0c-2.816 0-5.227-.747-7.232-2.24-2.006-1.493-3.542-3.541-4.608-6.144-1.024-2.603-1.536-5.59-1.536-8.96 0-3.37.512-6.357 1.536-8.96 1.024-2.603 2.517-4.65 4.48-6.144 1.962-1.493 4.373-2.24 7.232-2.24 2.346 0 4.266.49 5.76 1.472a11.054 11.054 0 0 1 3.584 3.84 17.041 17.041 0 0 1 2.048 5.056h1.152a89.447 89.447 0 0 1-.576-3.84c-.171-1.365-.32-2.688-.448-3.968a37.002 37.002 0 0 1-.192-3.52V15.2h5.887V60h-5.247l.32-8.96h-1.024c-.512 1.92-1.238 3.627-2.176 5.12a10.676 10.676 0 0 1-3.584 3.456c-1.451.81-3.243 1.216-5.376 1.216Zm1.344-5.12c1.536 0 2.922-.363 4.16-1.088a10.435 10.435 0 0 0 3.136-2.816 13.52 13.52 0 0 0 1.92-3.84c.469-1.365.704-2.688.704-3.968v-.768c0-.896-.128-1.856-.384-2.88a16.047 16.047 0 0 0-1.152-3.2 10.963 10.963 0 0 0-1.92-2.944 7.994 7.994 0 0 0-2.752-2.176c-1.067-.555-2.262-.832-3.584-.832-1.92 0-3.542.555-4.864 1.664-1.28 1.067-2.262 2.539-2.944 4.416-.64 1.877-.961 3.99-.961 6.336 0 2.432.342 4.565 1.025 6.4.682 1.792 1.664 3.2 2.944 4.224 1.322.981 2.88 1.472 4.672 1.472ZM183.558 60V26.912h5.824V60h-5.824Zm2.944-38.848c-1.366 0-2.39-.277-3.072-.832-.683-.555-1.024-1.387-1.024-2.496 0-1.11.341-1.941 1.024-2.496.682-.555 1.685-.832 3.008-.832 1.365 0 2.389.277 3.072.832.682.555 1.024 1.387 1.024 2.496 0 1.067-.342 1.899-1.024 2.496-.683.555-1.686.832-3.008.832Zm27.2 39.68c-3.158 0-5.952-.683-8.384-2.048-2.39-1.408-4.267-3.413-5.632-6.016-1.323-2.603-1.984-5.76-1.984-9.472 0-3.84.704-7.019 2.112-9.536 1.45-2.56 3.37-4.48 5.76-5.76 2.389-1.28 5.056-1.92 8-1.92 3.072 0 5.802.683 8.192 2.048 2.432 1.323 4.352 3.285 5.76 5.888 1.408 2.56 2.112 5.739 2.112 9.536 0 3.797-.704 6.976-2.112 9.536-1.366 2.56-3.264 4.501-5.696 5.824-2.39 1.28-5.099 1.92-8.128 1.92Zm.256-4.8c2.048 0 3.797-.49 5.248-1.472 1.493-1.024 2.624-2.453 3.392-4.288.81-1.835 1.216-4.01 1.216-6.528 0-2.603-.427-4.843-1.28-6.72-.811-1.92-1.984-3.392-3.52-4.416-1.536-1.067-3.392-1.6-5.568-1.6-1.963 0-3.691.47-5.184 1.408-1.494.939-2.646 2.325-3.456 4.16-.811 1.792-1.216 3.99-1.216 6.592 0 4.01.917 7.168 2.752 9.472 1.877 2.261 4.416 3.392 7.616 3.392Z"/></svg>