<svg xmlns="http://www.w3.org/2000/svg" viewBox="0 0 491.04 87.22"><path d="M10.28,46.11h.66c8.3.52,11.92,3.69,15,9l.27-11.72H0a31.55,31.55,0,0,1,1.78,11V75.23A33,33,0,0,1,0,86.23H26.09l-.2-11.79c-3.16,5.4-6.26,8.89-15.28,9.09h-.2c-.26-2.83-.33-5.6-.33-8.3V65.54h.86c4.87,0,8,1.45,11.66,5.27V57.7c-3.62,4-6.79,5.08-11.66,5.08h-.86V54.41C10.08,51.71,10.08,48.94,10.28,46.11Z" style="fill:#dee6e4"/><path d="M44.8,83.33h-1a56,56,0,0,1-.46-8.1V54.41a38.15,38.15,0,0,1,1.38-11H33.21a31.54,31.54,0,0,1,1.77,11V75.23a32.88,32.88,0,0,1-1.71,11H57.85L58,74.44C55.21,80.17,50.86,83.33,44.8,83.33Z" style="fill:#dee6e4"/><path d="M76.49,43.41H64.57a30.12,30.12,0,0,1,1.84,11V75.23a31.32,31.32,0,0,1-1.78,11h11.8a31.21,31.21,0,0,1-1.72-11V54.41A30,30,0,0,1,76.49,43.41Z" style="fill:#dee6e4"/><path d="M111.28,80.37l-8.5-17,7.71-14.1c1.71-3.16,2.63-4.48,4.61-5.86h-8.43a5.84,5.84,0,0,1,.59,2.7,6.69,6.69,0,0,1-.66,3l-5.4,11.07L95.73,49.07a7.33,7.33,0,0,1-.79-3.49,3.39,3.39,0,0,1,.53-2.17H81.89c1.78,1.38,2.9,3.16,4.22,5.86l8.1,15.81-8.3,15.29c-1.71,3.16-2.63,4.48-4.21,5.86h8.1a4.65,4.65,0,0,1-.59-2.57,7.07,7.07,0,0,1,.66-3.09l5.86-12.46,6.19,12.46a7,7,0,0,1,.66,3,4.61,4.61,0,0,1-.66,2.63h13.64A16.22,16.22,0,0,1,111.28,80.37Z" style="fill:#dee6e4"/><path d="M152.46,43.41H140.93a31.08,31.08,0,0,1,1.51,11v8.3H130.78v-8.3a29.67,29.67,0,0,1,1.58-11H120.77a31.54,31.54,0,0,1,1.77,11V75.23a33.25,33.25,0,0,1-1.77,11h11.66a28.4,28.4,0,0,1-1.65-11V65h11.66V75.23a31.08,31.08,0,0,1-1.51,11h11.53a29.9,29.9,0,0,1-1.72-11V54.41A31.21,31.21,0,0,1,152.46,43.41Z" style="fill:#dee6e4"/><path d="M177.29,43.08h-3.95L162.8,76c-1.45,4.35-2.9,7.71-5.07,10.21h8.43a10.32,10.32,0,0,1-.92-4.87,18.44,18.44,0,0,1,.72-5l1.12-3.95h10.41l1.12,3.95a22.35,22.35,0,0,1,.73,5.47,9.67,9.67,0,0,1-.79,4.41h14c-2.11-2.7-3.43-6.19-4.74-10.21Zm-9.55,27.08,4.68-16.28,4.48,16.28Z" style="fill:#dee6e4"/><path d="M222.69,54.28V73.52c0,5.73-2.57,8.76-7.51,8.76s-7.91-3-7.91-8.76V54.28a29,29,0,0,1,1.58-10.87H197.19A32.28,32.28,0,0,1,199,54.28V73.71c0,5.8,2.5,13.51,13.38,13.51,11.13,0,13.77-7.71,13.77-13.51V54.28A29.45,29.45,0,0,1,228,43.41h-7.25A26.07,26.07,0,0,1,222.69,54.28Z" style="fill:#dee6e4"/><path d="M253.79,63.17l-5.21-3.29c-5.47-3.43-7.31-5.41-7.31-8.44a4.08,4.08,0,0,1,4.41-4.28c4.75,0,9.56,4.75,12.19,9.88l1.71-13a33.13,33.13,0,0,0-8.69-1.25c-9.75,0-15.95,6.06-15.95,13,0,5.73,3.3,8.11,7.65,10.81l6.85,4.21c4.48,2.77,5.6,4.75,5.6,7.78a4.38,4.38,0,0,1-4.68,4.48c-3.43,0-6.92-2.9-9.69-11l-6.91,4.35c2.24,6.91,7.71,10.8,13.7,10.8a13.2,13.2,0,0,0,13.38-13.31C260.84,68.71,257.67,65.68,253.79,63.17Z" style="fill:#dee6e4"/><path d="M278,46.11h.65c8.31.52,11.93,3.69,15,9l.26-11.72H267.69a31.55,31.55,0,0,1,1.78,11V75.23a33.27,33.27,0,0,1-1.78,11h26.09l-.2-11.79c-3.16,5.4-6.26,8.89-15.28,9.09h-.2c-.27-2.83-.33-5.6-.33-8.3V65.54h.85c4.88,0,8,1.45,11.67,5.27V57.7c-3.63,4-6.79,5.08-11.67,5.08h-.85V54.41C277.77,51.71,277.77,48.94,278,46.11Z" style="fill:#dee6e4"/><path d="M326.79,71.14c-1-3.29-1.91-4.54-4.35-4.87a12.3,12.3,0,0,0,7.25-11.2c0-9.09-7.12-11.66-13.91-11.66H300.89a30,30,0,0,1,1.78,11V75.23a31.42,31.42,0,0,1-1.71,11h11.92a37,37,0,0,1-1.77-11V68.11c1.31,0,2.76,0,3.95.07s2,1.25,2.77,4.08l4.08,14h10.67a21.1,21.1,0,0,1-3.16-6.45Zm-14.3-5.4h-1.38V54.41c0-2.7.06-5.54.13-8.37.79-.06,1.58-.06,2.3-.06,4.68,0,7.38,3.75,7.45,10.27C321,64.16,317.89,65.74,312.49,65.74Z" style="fill:#dee6e4"/><path d="M393.4,48.08a22.69,22.69,0,0,1-.6,5.21l-5,22.4-5.87-22.4a25.54,25.54,0,0,1-.85-5.86,6.79,6.79,0,0,1,1.05-4h-14.3A27.54,27.54,0,0,1,372,52l-7.11,23.59-4.75-22.34a29.38,29.38,0,0,1-.66-5.8,7.76,7.76,0,0,1,.79-4.08H345.83a25.71,25.71,0,0,1,4.8,10.21l8.64,32.94h4.61l9.62-29.71L383,86.56h4.87L396,53.62a22.61,22.61,0,0,1,5.14-10.21h-8.56A10.76,10.76,0,0,1,393.4,48.08Z" style="fill:#dee6e4"/><path d="M418,43.41H406.11a30.13,30.13,0,0,1,1.85,11V75.23a31.55,31.55,0,0,1-1.78,11H418a31.42,31.42,0,0,1-1.71-11V54.41A30,30,0,0,1,418,43.41Z" style="fill:#dee6e4"/><path d="M451.31,71.14c-1-3.29-1.91-4.54-4.35-4.87a12.28,12.28,0,0,0,7.25-11.2c0-9.09-7.12-11.66-13.91-11.66H425.41a30,30,0,0,1,1.78,11V75.23a31.42,31.42,0,0,1-1.71,11h11.93a36.7,36.7,0,0,1-1.78-11V68.11c1.31,0,2.76,0,3.95.07s2,1.25,2.77,4.08l4.08,14h10.68a20.9,20.9,0,0,1-3.17-6.45ZM437,65.74h-1.38V54.41c0-2.7.06-5.54.13-8.37.79-.06,1.58-.06,2.3-.06,4.68,0,7.38,3.75,7.45,10.27C445.51,64.16,442.41,65.74,437,65.74Z" style="fill:#dee6e4"/><path d="M491,56.45l-.2-13H460.27l-.27,13C463.1,48.68,465.54,46,471.4,46V75.23a29,29,0,0,1-2,11h12.26a27.84,27.84,0,0,1-2-11V46C485.63,46,488.07,48.28,491,56.45Z" style="fill:#dee6e4"/><polygon points="236.66 0.29 234.38 0.29 227.79 8.25 227.72 8.25 227.72 0.29 225.71 0.29 225.71 16.15 227.72 16.15 227.72 11.14 230.44 7.91 235.18 16.15 237.43 16.15 231.7 6.33 236.66 0.29" style="fill:#dee6e4"/><path d="M135.45,0c-4,0-6.78,3.08-6.78,8.16s2.8,8.28,6.78,8.28,6.78-3.19,6.78-8.28S139.43,0,135.45,0Zm0,14.67c-2.83,0-4.69-2.55-4.69-6.51s1.86-6.39,4.69-6.39,4.7,2.44,4.7,6.39S138.28,14.67,135.45,14.67Z" style="fill:#dee6e4"/><path d="M171.3.29l-5.36,15.86H168l1.53-4.83h5.78l1.51,4.83H179L173.58.29Zm3.5,9.42H170l.77-2.42c.57-1.77,1.08-3.5,1.57-5.34h.09c.51,1.83,1,3.57,1.59,5.34Z" style="fill:#dee6e4"/><path d="M155.85,8.77c-.38,1.08-.72,2.2-1.1,3.3h-.1c-.38-1.1-.74-2.22-1.12-3.3l-3-8.48h-2.43V16.15h1.82V7.42c0-1.38-.15-3.29-.25-4.69h.09L151,6.35l3,8.2h1.34l3-8.2,1.26-3.62h.09c-.1,1.4-.25,3.31-.25,4.69v8.73h1.87V.29h-2.43Z" style="fill:#dee6e4"/><rect x="216.93" y="0.29" width="2.02" height="15.86" style="fill:#dee6e4"/><polygon points="200.06 2 204.86 2 204.86 16.15 206.88 16.15 206.88 2 211.68 2 211.68 0.29 200.06 0.29 200.06 2" style="fill:#dee6e4"/><path d="M192.89,8.5c0,1.66.15,3.45.25,5.05h-.09l-1.72-3.29-5.74-10h-2.08V16.15h1.91V7.85c0-1.66-.15-3.35-.25-4.95h.09L187,6.17l5.74,10h2.08V.29h-1.91Z" style="fill:#dee6e4"/><path d="M123.94,4.75c0-3.3-2.32-4.46-5.55-4.46h-5V16.15h2V9.45h2.87l3.82,6.7h2.29l-4-6.92A4.31,4.31,0,0,0,123.94,4.75ZM118.1,7.81h-2.66V1.93h2.66c2.47,0,3.83.74,3.83,2.82S120.57,7.81,118.1,7.81Z" style="fill:#dee6e4"/><path d="M255.8,7.69l-2.26-1c-1.24-.53-2.63-1.1-2.63-2.63s1.18-2.32,3-2.32a5.05,5.05,0,0,1,3.6,1.49L258.54,2a6.51,6.51,0,0,0-4.67-2c-2.88,0-5,1.79-5,4.21s1.73,3.45,3.21,4.08l2.28,1c1.5.65,2.64,1.17,2.64,2.79s-1.23,2.58-3.31,2.58a6.18,6.18,0,0,1-4.38-2l-1.21,1.39a7.64,7.64,0,0,0,5.55,2.35c3.34,0,5.41-2,5.41-4.5S257.64,8.48,255.8,7.69Z" style="fill:#dee6e4"/><polygon points="311.49 6.93 304.11 6.93 304.11 0.29 302.09 0.29 302.09 16.15 304.11 16.15 304.11 8.7 311.49 8.7 311.49 16.15 313.5 16.15 313.5 0.29 311.49 0.29 311.49 6.93" style="fill:#dee6e4"/><polygon points="355.54 8.68 361.55 8.68 361.55 6.97 355.54 6.97 355.54 2 362.66 2 362.66 0.29 353.52 0.29 353.52 16.15 362.9 16.15 362.9 14.45 355.54 14.45 355.54 8.68" style="fill:#dee6e4"/><polygon points="370.69 0.29 368.67 0.29 368.67 16.15 377.61 16.15 377.61 14.45 370.69 14.45 370.69 0.29" style="fill:#dee6e4"/><path d="M269.12.29h-4.53V16.15h2V9.86h2.6c3.47,0,5.86-1.56,5.86-4.9S272.67.29,269.12.29ZM269,8.22h-2.35V1.93h2.25c2.79,0,4.2.74,4.2,3S271.73,8.22,269,8.22Z" style="fill:#dee6e4"/><path d="M326.12,0c-4,0-6.78,3.08-6.78,8.16s2.8,8.28,6.78,8.28,6.78-3.19,6.78-8.28S330.11,0,326.12,0Zm0,14.67c-2.83,0-4.69-2.55-4.69-6.51s1.86-6.39,4.69-6.39,4.7,2.44,4.7,6.39S329,14.67,326.12,14.67Z" style="fill:#dee6e4"/><path d="M282.74.29l-5.37,15.86h2.05L281,11.32h5.78l1.51,4.83h2.14L285,.29Zm3.49,9.42h-4.77l.76-2.42c.57-1.77,1.08-3.5,1.57-5.34h.1c.51,1.83,1,3.57,1.59,5.34Z" style="fill:#dee6e4"/><polygon points="336.65 2 341.45 2 341.45 16.15 343.47 16.15 343.47 2 348.27 2 348.27 0.29 336.65 0.29 336.65 2" style="fill:#dee6e4"/></svg>