<svg xmlns="http://www.w3.org/2000/svg" xmlns:xlink="http://www.w3.org/1999/xlink" width="126.621" height="103.713" viewBox="0 0 126.621 103.713">
  <defs>
    <style>
      .cls-1 {
        fill: none;
      }

      .cls-2 {
        clip-path: url(#clip-path);
      }

      .cls-3 {
        fill: #000000;
      }
    </style>
    <clipPath id="clip-path">
      <path id="Pfad_2" data-name="Pfad 2" class="cls-1" d="M0,61.6H126.62V-42.111H0Z" transform="translate(0 42.111)"/>
    </clipPath>
  </defs>
  <g id="Gruppe_15" data-name="Gruppe 15" transform="translate(-658 -363.111)">
    <g id="Gruppe_14" data-name="Gruppe 14" transform="translate(658 363.111)">
      <g id="Gruppe_2" data-name="Gruppe 2" class="cls-2" transform="translate(0 0)">
        <g id="Gruppe_1" data-name="Gruppe 1" transform="translate(0 68.527)">
          <path id="Pfad_1" data-name="Pfad 1" class="cls-3" d="M19.216,12.017V26.482h-.488l-2.785-3.468c-2,2.394-6.11,3.958-10.9,3.958-10.312,0-18.181-7.576-18.181-17.595S-5.366-8.215,5.289-8.215c7.428,0,12.95,3.763,12.95,8.847H17.164c0-4.4-4.6-7.674-10.9-7.674C-2.923-7.043-8.59-.639-8.59,9.525c0,9.92,5.522,16.469,14.122,16.469,4.642,0,8.113-1.758,9.433-4.692V12.017Z" transform="translate(13.136 8.215)"/>
        </g>
      </g>
      <g id="Gruppe_3" data-name="Gruppe 3" transform="translate(40.463 69.015)">
        <path id="Pfad_3" data-name="Pfad 3" class="cls-3" d="M0,0V34.211H24.094v-.978H4.349V17.348H19.693v-.978H4.349V.978H23.6V0Z"/>
      </g>
      <g id="Gruppe_5" data-name="Gruppe 5" class="cls-2" transform="translate(0 0)">
        <g id="Gruppe_4" data-name="Gruppe 4" transform="translate(70.762 69.015)">
          <path id="Pfad_4" data-name="Pfad 4" class="cls-3" d="M16.836,20.319H11.851a8.661,8.661,0,0,1-2.542-2.835L4.13,8.394A7.051,7.051,0,0,0,1.15,5.658H-7.16V20.319h-4.349V-13.89H1.931c7.086,0,12.413,4.155,12.413,9.726,0,5.081-4.251,8.943-10.263,9.677A8.57,8.57,0,0,1,9.309,9.128l4.4,7.477a12.084,12.084,0,0,0,3.128,3.714M-7.16,4.68H1.1c5.229,0,8.7-3.468,8.7-8.795s-3.47-8.8-8.7-8.8H-7.16Z" transform="translate(11.509 13.89)"/>
        </g>
      </g>
      <g id="Gruppe_6" data-name="Gruppe 6" transform="translate(103.749 69.015)">
        <path id="Pfad_6" data-name="Pfad 6" class="cls-3" d="M0,0V34.211H22.872v-.978H4.352V0Z"/>
      </g>
      <g id="Gruppe_10" data-name="Gruppe 10" class="cls-2" transform="translate(0 0)">
        <g id="Gruppe_7" data-name="Gruppe 7" transform="translate(67.512 24.969)">
          <path id="Pfad_7" data-name="Pfad 7" class="cls-3" d="M2.772,4.7c0,.69-.761,1.212-1.776,1.212A1.858,1.858,0,0,1-.991,4.133V-1h-.9V-1.28h.9V-2.874L.262-3.211V-1.28H2.405V-1H.262V4.36A1.121,1.121,0,0,0,1.376,5.53c.621,0,1.1-.352,1.1-.832Z" transform="translate(1.895 3.211)"/>
        </g>
        <g id="Gruppe_8" data-name="Gruppe 8" transform="translate(52.878 14.958)">
          <path id="Pfad_8" data-name="Pfad 8" class="cls-3" d="M0,2.177A3.607,3.607,0,0,1,3.709-1.488,3.61,3.61,0,0,1,7.43,2.177,3.61,3.61,0,0,1,3.709,5.841,3.607,3.607,0,0,1,0,2.177m6.118,0c0-2.074-.943-3.384-2.409-3.384S1.31.1,1.31,2.177s.946,3.384,2.4,3.384S6.118,4.248,6.118,2.177" transform="translate(0 1.488)"/>
        </g>
        <g id="Gruppe_9" data-name="Gruppe 9" transform="translate(79.355 38.545)">
          <path id="Pfad_9" data-name="Pfad 9" class="cls-3" d="M3.836,3.492h.31A3.17,3.17,0,0,1,1.255,4.945,3.669,3.669,0,0,1-2.622,1.278,3.6,3.6,0,0,1,1.016-2.387,3.289,3.289,0,0,1,4.358,1.066H-1.309v.1c0,2.172,1.084,3.455,2.832,3.455A2.675,2.675,0,0,0,3.836,3.492M-1.3.785H3.1C3.045-.978,2.242-2.106.974-2.106S-1.184-.949-1.3.785" transform="translate(2.622 2.387)"/>
        </g>
      </g>
      <g id="Gruppe_11" data-name="Gruppe 11" transform="translate(95.343 47.244)">
        <path id="Pfad_11" data-name="Pfad 11" class="cls-3" d="M0,.184v9.982H1.254V-.126Z" transform="translate(0 0.126)"/>
      </g>
      <g id="Gruppe_13" data-name="Gruppe 13" class="cls-2" transform="translate(0 0)">
        <g id="Gruppe_12" data-name="Gruppe 12" transform="translate(40.329 0)">
          <path id="Pfad_12" data-name="Pfad 12" class="cls-3" d="M3.836,3.265V8.058H2.582v-5.1A1.592,1.592,0,0,0,.9,1.347,2.589,2.589,0,0,0-1.366,2.841V8.058H-2.622V-1.924l1.256-.308V2.349A3.118,3.118,0,0,1,1.3.869a2.4,2.4,0,0,1,2.537,2.4" transform="translate(2.622 2.232)"/>
        </g>
      </g>
    </g>
  </g>
</svg>
